<mxfile host="Electron" agent="Mozilla/5.0 (X11; Linux x86_64) AppleWebKit/537.36 (KHTML, like Gecko) draw.io/26.2.2 Chrome/134.0.6998.178 Electron/35.1.2 Safari/537.36" version="26.2.2">
  <diagram name="Page-1" id="5zJlX-YoZaNQF9OpYBEF">
    <mxGraphModel dx="2495" dy="843" grid="1" gridSize="10" guides="1" tooltips="1" connect="1" arrows="1" fold="1" page="1" pageScale="1" pageWidth="850" pageHeight="1100" math="0" shadow="0">
      <root>
        <mxCell id="0" />
        <mxCell id="1" parent="0" />
        <mxCell id="qmt6e6BJGcGWodywch0B-134" style="edgeStyle=orthogonalEdgeStyle;rounded=0;orthogonalLoop=1;jettySize=auto;html=1;fillColor=#1ba1e2;strokeColor=#006EAF;" edge="1" parent="1" source="qmt6e6BJGcGWodywch0B-2" target="qmt6e6BJGcGWodywch0B-37">
          <mxGeometry relative="1" as="geometry">
            <Array as="points">
              <mxPoint x="-480" y="690" />
              <mxPoint y="690" />
            </Array>
          </mxGeometry>
        </mxCell>
        <mxCell id="qmt6e6BJGcGWodywch0B-2" value="User" style="shape=table;startSize=30;container=1;collapsible=1;childLayout=tableLayout;fixedRows=1;rowLines=0;fontStyle=1;align=center;resizeLast=1;html=1;" vertex="1" parent="1">
          <mxGeometry x="-570" y="720" width="180" height="210" as="geometry" />
        </mxCell>
        <mxCell id="qmt6e6BJGcGWodywch0B-3" value="" style="shape=tableRow;horizontal=0;startSize=0;swimlaneHead=0;swimlaneBody=0;fillColor=none;collapsible=0;dropTarget=0;points=[[0,0.5],[1,0.5]];portConstraint=eastwest;top=0;left=0;right=0;bottom=1;" vertex="1" parent="qmt6e6BJGcGWodywch0B-2">
          <mxGeometry y="30" width="180" height="30" as="geometry" />
        </mxCell>
        <mxCell id="qmt6e6BJGcGWodywch0B-4" value="PK" style="shape=partialRectangle;connectable=0;fillColor=none;top=0;left=0;bottom=0;right=0;fontStyle=1;overflow=hidden;whiteSpace=wrap;html=1;" vertex="1" parent="qmt6e6BJGcGWodywch0B-3">
          <mxGeometry width="30" height="30" as="geometry">
            <mxRectangle width="30" height="30" as="alternateBounds" />
          </mxGeometry>
        </mxCell>
        <mxCell id="qmt6e6BJGcGWodywch0B-5" value="ID" style="shape=partialRectangle;connectable=0;fillColor=none;top=0;left=0;bottom=0;right=0;align=left;spacingLeft=6;fontStyle=5;overflow=hidden;whiteSpace=wrap;html=1;" vertex="1" parent="qmt6e6BJGcGWodywch0B-3">
          <mxGeometry x="30" width="150" height="30" as="geometry">
            <mxRectangle width="150" height="30" as="alternateBounds" />
          </mxGeometry>
        </mxCell>
        <mxCell id="qmt6e6BJGcGWodywch0B-6" value="" style="shape=tableRow;horizontal=0;startSize=0;swimlaneHead=0;swimlaneBody=0;fillColor=none;collapsible=0;dropTarget=0;points=[[0,0.5],[1,0.5]];portConstraint=eastwest;top=0;left=0;right=0;bottom=0;" vertex="1" parent="qmt6e6BJGcGWodywch0B-2">
          <mxGeometry y="60" width="180" height="30" as="geometry" />
        </mxCell>
        <mxCell id="qmt6e6BJGcGWodywch0B-7" value="&lt;b&gt;NN&lt;/b&gt;" style="shape=partialRectangle;connectable=0;fillColor=none;top=0;left=0;bottom=0;right=0;editable=1;overflow=hidden;whiteSpace=wrap;html=1;" vertex="1" parent="qmt6e6BJGcGWodywch0B-6">
          <mxGeometry width="30" height="30" as="geometry">
            <mxRectangle width="30" height="30" as="alternateBounds" />
          </mxGeometry>
        </mxCell>
        <mxCell id="qmt6e6BJGcGWodywch0B-8" value="name" style="shape=partialRectangle;connectable=0;fillColor=none;top=0;left=0;bottom=0;right=0;align=left;spacingLeft=6;overflow=hidden;whiteSpace=wrap;html=1;" vertex="1" parent="qmt6e6BJGcGWodywch0B-6">
          <mxGeometry x="30" width="150" height="30" as="geometry">
            <mxRectangle width="150" height="30" as="alternateBounds" />
          </mxGeometry>
        </mxCell>
        <mxCell id="qmt6e6BJGcGWodywch0B-9" value="" style="shape=tableRow;horizontal=0;startSize=0;swimlaneHead=0;swimlaneBody=0;fillColor=none;collapsible=0;dropTarget=0;points=[[0,0.5],[1,0.5]];portConstraint=eastwest;top=0;left=0;right=0;bottom=0;" vertex="1" parent="qmt6e6BJGcGWodywch0B-2">
          <mxGeometry y="90" width="180" height="30" as="geometry" />
        </mxCell>
        <mxCell id="qmt6e6BJGcGWodywch0B-10" value="&lt;b&gt;NN&lt;/b&gt;" style="shape=partialRectangle;connectable=0;fillColor=none;top=0;left=0;bottom=0;right=0;editable=1;overflow=hidden;whiteSpace=wrap;html=1;" vertex="1" parent="qmt6e6BJGcGWodywch0B-9">
          <mxGeometry width="30" height="30" as="geometry">
            <mxRectangle width="30" height="30" as="alternateBounds" />
          </mxGeometry>
        </mxCell>
        <mxCell id="qmt6e6BJGcGWodywch0B-11" value="surname" style="shape=partialRectangle;connectable=0;fillColor=none;top=0;left=0;bottom=0;right=0;align=left;spacingLeft=6;overflow=hidden;whiteSpace=wrap;html=1;" vertex="1" parent="qmt6e6BJGcGWodywch0B-9">
          <mxGeometry x="30" width="150" height="30" as="geometry">
            <mxRectangle width="150" height="30" as="alternateBounds" />
          </mxGeometry>
        </mxCell>
        <mxCell id="qmt6e6BJGcGWodywch0B-12" value="" style="shape=tableRow;horizontal=0;startSize=0;swimlaneHead=0;swimlaneBody=0;fillColor=none;collapsible=0;dropTarget=0;points=[[0,0.5],[1,0.5]];portConstraint=eastwest;top=0;left=0;right=0;bottom=0;" vertex="1" parent="qmt6e6BJGcGWodywch0B-2">
          <mxGeometry y="120" width="180" height="30" as="geometry" />
        </mxCell>
        <mxCell id="qmt6e6BJGcGWodywch0B-13" value="&lt;b&gt;NN&lt;/b&gt;" style="shape=partialRectangle;connectable=0;fillColor=none;top=0;left=0;bottom=0;right=0;editable=1;overflow=hidden;whiteSpace=wrap;html=1;" vertex="1" parent="qmt6e6BJGcGWodywch0B-12">
          <mxGeometry width="30" height="30" as="geometry">
            <mxRectangle width="30" height="30" as="alternateBounds" />
          </mxGeometry>
        </mxCell>
        <mxCell id="qmt6e6BJGcGWodywch0B-14" value="password" style="shape=partialRectangle;connectable=0;fillColor=none;top=0;left=0;bottom=0;right=0;align=left;spacingLeft=6;overflow=hidden;whiteSpace=wrap;html=1;" vertex="1" parent="qmt6e6BJGcGWodywch0B-12">
          <mxGeometry x="30" width="150" height="30" as="geometry">
            <mxRectangle width="150" height="30" as="alternateBounds" />
          </mxGeometry>
        </mxCell>
        <mxCell id="qmt6e6BJGcGWodywch0B-18" style="shape=tableRow;horizontal=0;startSize=0;swimlaneHead=0;swimlaneBody=0;fillColor=none;collapsible=0;dropTarget=0;points=[[0,0.5],[1,0.5]];portConstraint=eastwest;top=0;left=0;right=0;bottom=0;" vertex="1" parent="qmt6e6BJGcGWodywch0B-2">
          <mxGeometry y="150" width="180" height="30" as="geometry" />
        </mxCell>
        <mxCell id="qmt6e6BJGcGWodywch0B-19" value="&lt;b&gt;NN&lt;/b&gt;" style="shape=partialRectangle;connectable=0;fillColor=none;top=0;left=0;bottom=0;right=0;editable=1;overflow=hidden;whiteSpace=wrap;html=1;" vertex="1" parent="qmt6e6BJGcGWodywch0B-18">
          <mxGeometry width="30" height="30" as="geometry">
            <mxRectangle width="30" height="30" as="alternateBounds" />
          </mxGeometry>
        </mxCell>
        <mxCell id="qmt6e6BJGcGWodywch0B-20" value="created_at" style="shape=partialRectangle;connectable=0;fillColor=none;top=0;left=0;bottom=0;right=0;align=left;spacingLeft=6;overflow=hidden;whiteSpace=wrap;html=1;" vertex="1" parent="qmt6e6BJGcGWodywch0B-18">
          <mxGeometry x="30" width="150" height="30" as="geometry">
            <mxRectangle width="150" height="30" as="alternateBounds" />
          </mxGeometry>
        </mxCell>
        <mxCell id="qmt6e6BJGcGWodywch0B-15" style="shape=tableRow;horizontal=0;startSize=0;swimlaneHead=0;swimlaneBody=0;fillColor=none;collapsible=0;dropTarget=0;points=[[0,0.5],[1,0.5]];portConstraint=eastwest;top=0;left=0;right=0;bottom=0;" vertex="1" parent="qmt6e6BJGcGWodywch0B-2">
          <mxGeometry y="180" width="180" height="30" as="geometry" />
        </mxCell>
        <mxCell id="qmt6e6BJGcGWodywch0B-16" value="&lt;b&gt;NN&lt;/b&gt;" style="shape=partialRectangle;connectable=0;fillColor=none;top=0;left=0;bottom=0;right=0;editable=1;overflow=hidden;whiteSpace=wrap;html=1;" vertex="1" parent="qmt6e6BJGcGWodywch0B-15">
          <mxGeometry width="30" height="30" as="geometry">
            <mxRectangle width="30" height="30" as="alternateBounds" />
          </mxGeometry>
        </mxCell>
        <mxCell id="qmt6e6BJGcGWodywch0B-17" value="updated_at" style="shape=partialRectangle;connectable=0;fillColor=none;top=0;left=0;bottom=0;right=0;align=left;spacingLeft=6;overflow=hidden;whiteSpace=wrap;html=1;" vertex="1" parent="qmt6e6BJGcGWodywch0B-15">
          <mxGeometry x="30" width="150" height="30" as="geometry">
            <mxRectangle width="150" height="30" as="alternateBounds" />
          </mxGeometry>
        </mxCell>
        <mxCell id="qmt6e6BJGcGWodywch0B-23" value="" style="edgeStyle=orthogonalEdgeStyle;rounded=0;orthogonalLoop=1;jettySize=auto;html=1;" edge="1" parent="1" source="qmt6e6BJGcGWodywch0B-21" target="qmt6e6BJGcGWodywch0B-22">
          <mxGeometry relative="1" as="geometry" />
        </mxCell>
        <mxCell id="qmt6e6BJGcGWodywch0B-36" value="" style="edgeStyle=orthogonalEdgeStyle;rounded=0;orthogonalLoop=1;jettySize=auto;html=1;" edge="1" parent="1" source="qmt6e6BJGcGWodywch0B-21" target="qmt6e6BJGcGWodywch0B-35">
          <mxGeometry relative="1" as="geometry" />
        </mxCell>
        <mxCell id="qmt6e6BJGcGWodywch0B-21" value="&lt;b&gt;REST API&lt;/b&gt;&lt;div&gt;&lt;b&gt;---&lt;/b&gt;&lt;/div&gt;&lt;div&gt;&lt;b&gt;/api/&lt;/b&gt;&lt;/div&gt;" style="rounded=1;whiteSpace=wrap;html=1;fillColor=#e3c800;fontColor=#000000;strokeColor=#B09500;" vertex="1" parent="1">
          <mxGeometry x="-80" y="80" width="160" height="80" as="geometry" />
        </mxCell>
        <mxCell id="qmt6e6BJGcGWodywch0B-25" value="" style="edgeStyle=orthogonalEdgeStyle;rounded=0;orthogonalLoop=1;jettySize=auto;html=1;fillColor=#008a00;strokeColor=#005700;" edge="1" parent="1" source="qmt6e6BJGcGWodywch0B-22" target="qmt6e6BJGcGWodywch0B-24">
          <mxGeometry relative="1" as="geometry" />
        </mxCell>
        <mxCell id="qmt6e6BJGcGWodywch0B-28" value="" style="edgeStyle=orthogonalEdgeStyle;rounded=0;orthogonalLoop=1;jettySize=auto;html=1;fillColor=#1ba1e2;strokeColor=#006EAF;" edge="1" parent="1" source="qmt6e6BJGcGWodywch0B-22" target="qmt6e6BJGcGWodywch0B-27">
          <mxGeometry relative="1" as="geometry" />
        </mxCell>
        <mxCell id="qmt6e6BJGcGWodywch0B-30" value="" style="edgeStyle=orthogonalEdgeStyle;rounded=0;orthogonalLoop=1;jettySize=auto;html=1;fillColor=#1ba1e2;strokeColor=#006EAF;" edge="1" parent="1" source="qmt6e6BJGcGWodywch0B-22" target="qmt6e6BJGcGWodywch0B-29">
          <mxGeometry relative="1" as="geometry" />
        </mxCell>
        <mxCell id="qmt6e6BJGcGWodywch0B-34" value="" style="edgeStyle=orthogonalEdgeStyle;rounded=0;orthogonalLoop=1;jettySize=auto;html=1;fillColor=#d80073;strokeColor=#A50040;" edge="1" parent="1" source="qmt6e6BJGcGWodywch0B-22" target="qmt6e6BJGcGWodywch0B-33">
          <mxGeometry relative="1" as="geometry" />
        </mxCell>
        <mxCell id="qmt6e6BJGcGWodywch0B-130" style="edgeStyle=orthogonalEdgeStyle;rounded=0;orthogonalLoop=1;jettySize=auto;html=1;fillColor=#008a00;strokeColor=#005700;" edge="1" parent="1" source="qmt6e6BJGcGWodywch0B-22" target="qmt6e6BJGcGWodywch0B-31">
          <mxGeometry relative="1" as="geometry" />
        </mxCell>
        <mxCell id="qmt6e6BJGcGWodywch0B-22" value="Users&lt;div&gt;---&lt;/div&gt;&lt;div&gt;/api/users/&lt;/div&gt;" style="whiteSpace=wrap;html=1;rounded=1;" vertex="1" parent="1">
          <mxGeometry x="-80" y="200" width="160" height="80" as="geometry" />
        </mxCell>
        <mxCell id="qmt6e6BJGcGWodywch0B-149" style="edgeStyle=orthogonalEdgeStyle;rounded=0;orthogonalLoop=1;jettySize=auto;html=1;fillColor=#008a00;strokeColor=#005700;" edge="1" parent="1" source="qmt6e6BJGcGWodywch0B-24" target="qmt6e6BJGcGWodywch0B-136">
          <mxGeometry relative="1" as="geometry" />
        </mxCell>
        <mxCell id="qmt6e6BJGcGWodywch0B-24" value="Создание пользователя&lt;div&gt;---&lt;/div&gt;&lt;div&gt;/api/users/create&lt;/div&gt;" style="whiteSpace=wrap;html=1;rounded=1;" vertex="1" parent="1">
          <mxGeometry x="-560" y="320" width="160" height="80" as="geometry" />
        </mxCell>
        <mxCell id="qmt6e6BJGcGWodywch0B-27" value="Получение списка пользователей&lt;div&gt;---&lt;/div&gt;&lt;div&gt;/api/users/get_all&lt;/div&gt;" style="whiteSpace=wrap;html=1;rounded=1;" vertex="1" parent="1">
          <mxGeometry x="-120" y="320" width="240" height="80" as="geometry" />
        </mxCell>
        <mxCell id="qmt6e6BJGcGWodywch0B-126" style="edgeStyle=orthogonalEdgeStyle;rounded=0;orthogonalLoop=1;jettySize=auto;html=1;fillColor=#f0a30a;strokeColor=#BD7000;" edge="1" parent="1" source="qmt6e6BJGcGWodywch0B-29" target="qmt6e6BJGcGWodywch0B-83">
          <mxGeometry relative="1" as="geometry" />
        </mxCell>
        <mxCell id="qmt6e6BJGcGWodywch0B-29" value="Получение данных одного пользователя&lt;div&gt;---&lt;/div&gt;&lt;div&gt;/api/users/get&lt;/div&gt;" style="whiteSpace=wrap;html=1;rounded=1;" vertex="1" parent="1">
          <mxGeometry x="160" y="320" width="240" height="80" as="geometry" />
        </mxCell>
        <mxCell id="qmt6e6BJGcGWodywch0B-125" style="edgeStyle=orthogonalEdgeStyle;rounded=0;orthogonalLoop=1;jettySize=auto;html=1;fillColor=#008a00;strokeColor=#005700;" edge="1" parent="1" source="qmt6e6BJGcGWodywch0B-31" target="qmt6e6BJGcGWodywch0B-106">
          <mxGeometry relative="1" as="geometry">
            <Array as="points">
              <mxPoint x="-260" y="470" />
              <mxPoint x="-260" y="470" />
            </Array>
          </mxGeometry>
        </mxCell>
        <mxCell id="qmt6e6BJGcGWodywch0B-31" value="Обновление данных пользователя&lt;div&gt;---&lt;/div&gt;&lt;div&gt;/api/users/update/&lt;/div&gt;" style="whiteSpace=wrap;html=1;rounded=1;" vertex="1" parent="1">
          <mxGeometry x="-360" y="320" width="200" height="80" as="geometry" />
        </mxCell>
        <mxCell id="qmt6e6BJGcGWodywch0B-127" style="edgeStyle=orthogonalEdgeStyle;rounded=0;orthogonalLoop=1;jettySize=auto;html=1;fillColor=#f0a30a;strokeColor=#BD7000;" edge="1" parent="1" source="qmt6e6BJGcGWodywch0B-33" target="qmt6e6BJGcGWodywch0B-83">
          <mxGeometry relative="1" as="geometry" />
        </mxCell>
        <mxCell id="qmt6e6BJGcGWodywch0B-33" value="Удаление пользователя&lt;div&gt;---&lt;/div&gt;&lt;div&gt;/api/users/delete&lt;/div&gt;" style="whiteSpace=wrap;html=1;rounded=1;" vertex="1" parent="1">
          <mxGeometry x="480" y="320" width="160" height="80" as="geometry" />
        </mxCell>
        <mxCell id="qmt6e6BJGcGWodywch0B-35" value="Swagger&lt;div&gt;---&lt;/div&gt;&lt;div&gt;/api/schema/swagger/&lt;/div&gt;" style="whiteSpace=wrap;html=1;rounded=1;" vertex="1" parent="1">
          <mxGeometry x="120" y="80" width="140" height="80" as="geometry" />
        </mxCell>
        <mxCell id="qmt6e6BJGcGWodywch0B-82" style="edgeStyle=orthogonalEdgeStyle;rounded=0;orthogonalLoop=1;jettySize=auto;html=1;fillColor=#1ba1e2;strokeColor=#006EAF;" edge="1" parent="1" source="qmt6e6BJGcGWodywch0B-37" target="qmt6e6BJGcGWodywch0B-27">
          <mxGeometry relative="1" as="geometry" />
        </mxCell>
        <mxCell id="qmt6e6BJGcGWodywch0B-98" style="edgeStyle=orthogonalEdgeStyle;rounded=0;orthogonalLoop=1;jettySize=auto;html=1;fillColor=#1ba1e2;strokeColor=#006EAF;" edge="1" parent="1" source="qmt6e6BJGcGWodywch0B-37" target="qmt6e6BJGcGWodywch0B-29">
          <mxGeometry relative="1" as="geometry">
            <Array as="points">
              <mxPoint y="440" />
              <mxPoint x="280" y="440" />
            </Array>
          </mxGeometry>
        </mxCell>
        <mxCell id="qmt6e6BJGcGWodywch0B-129" style="edgeStyle=orthogonalEdgeStyle;rounded=0;orthogonalLoop=1;jettySize=auto;html=1;fillColor=#1ba1e2;strokeColor=#006EAF;" edge="1" parent="1" source="qmt6e6BJGcGWodywch0B-37" target="qmt6e6BJGcGWodywch0B-31">
          <mxGeometry relative="1" as="geometry">
            <Array as="points">
              <mxPoint y="440" />
              <mxPoint x="-260" y="440" />
            </Array>
          </mxGeometry>
        </mxCell>
        <mxCell id="qmt6e6BJGcGWodywch0B-37" value="UserDTO" style="shape=table;startSize=30;container=1;collapsible=1;childLayout=tableLayout;fixedRows=1;rowLines=0;fontStyle=1;align=center;resizeLast=1;html=1;" vertex="1" parent="1">
          <mxGeometry x="-90" y="480" width="180" height="180" as="geometry" />
        </mxCell>
        <mxCell id="qmt6e6BJGcGWodywch0B-38" value="" style="shape=tableRow;horizontal=0;startSize=0;swimlaneHead=0;swimlaneBody=0;fillColor=none;collapsible=0;dropTarget=0;points=[[0,0.5],[1,0.5]];portConstraint=eastwest;top=0;left=0;right=0;bottom=1;" vertex="1" parent="qmt6e6BJGcGWodywch0B-37">
          <mxGeometry y="30" width="180" height="30" as="geometry" />
        </mxCell>
        <mxCell id="qmt6e6BJGcGWodywch0B-39" value="PK" style="shape=partialRectangle;connectable=0;fillColor=none;top=0;left=0;bottom=0;right=0;fontStyle=1;overflow=hidden;whiteSpace=wrap;html=1;" vertex="1" parent="qmt6e6BJGcGWodywch0B-38">
          <mxGeometry width="30" height="30" as="geometry">
            <mxRectangle width="30" height="30" as="alternateBounds" />
          </mxGeometry>
        </mxCell>
        <mxCell id="qmt6e6BJGcGWodywch0B-40" value="ID" style="shape=partialRectangle;connectable=0;fillColor=none;top=0;left=0;bottom=0;right=0;align=left;spacingLeft=6;fontStyle=5;overflow=hidden;whiteSpace=wrap;html=1;" vertex="1" parent="qmt6e6BJGcGWodywch0B-38">
          <mxGeometry x="30" width="150" height="30" as="geometry">
            <mxRectangle width="150" height="30" as="alternateBounds" />
          </mxGeometry>
        </mxCell>
        <mxCell id="qmt6e6BJGcGWodywch0B-41" value="" style="shape=tableRow;horizontal=0;startSize=0;swimlaneHead=0;swimlaneBody=0;fillColor=none;collapsible=0;dropTarget=0;points=[[0,0.5],[1,0.5]];portConstraint=eastwest;top=0;left=0;right=0;bottom=0;" vertex="1" parent="qmt6e6BJGcGWodywch0B-37">
          <mxGeometry y="60" width="180" height="30" as="geometry" />
        </mxCell>
        <mxCell id="qmt6e6BJGcGWodywch0B-42" value="&lt;b&gt;NN&lt;/b&gt;" style="shape=partialRectangle;connectable=0;fillColor=none;top=0;left=0;bottom=0;right=0;editable=1;overflow=hidden;whiteSpace=wrap;html=1;" vertex="1" parent="qmt6e6BJGcGWodywch0B-41">
          <mxGeometry width="30" height="30" as="geometry">
            <mxRectangle width="30" height="30" as="alternateBounds" />
          </mxGeometry>
        </mxCell>
        <mxCell id="qmt6e6BJGcGWodywch0B-43" value="name" style="shape=partialRectangle;connectable=0;fillColor=none;top=0;left=0;bottom=0;right=0;align=left;spacingLeft=6;overflow=hidden;whiteSpace=wrap;html=1;" vertex="1" parent="qmt6e6BJGcGWodywch0B-41">
          <mxGeometry x="30" width="150" height="30" as="geometry">
            <mxRectangle width="150" height="30" as="alternateBounds" />
          </mxGeometry>
        </mxCell>
        <mxCell id="qmt6e6BJGcGWodywch0B-44" value="" style="shape=tableRow;horizontal=0;startSize=0;swimlaneHead=0;swimlaneBody=0;fillColor=none;collapsible=0;dropTarget=0;points=[[0,0.5],[1,0.5]];portConstraint=eastwest;top=0;left=0;right=0;bottom=0;" vertex="1" parent="qmt6e6BJGcGWodywch0B-37">
          <mxGeometry y="90" width="180" height="30" as="geometry" />
        </mxCell>
        <mxCell id="qmt6e6BJGcGWodywch0B-45" value="&lt;b&gt;NN&lt;/b&gt;" style="shape=partialRectangle;connectable=0;fillColor=none;top=0;left=0;bottom=0;right=0;editable=1;overflow=hidden;whiteSpace=wrap;html=1;" vertex="1" parent="qmt6e6BJGcGWodywch0B-44">
          <mxGeometry width="30" height="30" as="geometry">
            <mxRectangle width="30" height="30" as="alternateBounds" />
          </mxGeometry>
        </mxCell>
        <mxCell id="qmt6e6BJGcGWodywch0B-46" value="surname" style="shape=partialRectangle;connectable=0;fillColor=none;top=0;left=0;bottom=0;right=0;align=left;spacingLeft=6;overflow=hidden;whiteSpace=wrap;html=1;" vertex="1" parent="qmt6e6BJGcGWodywch0B-44">
          <mxGeometry x="30" width="150" height="30" as="geometry">
            <mxRectangle width="150" height="30" as="alternateBounds" />
          </mxGeometry>
        </mxCell>
        <mxCell id="qmt6e6BJGcGWodywch0B-50" style="shape=tableRow;horizontal=0;startSize=0;swimlaneHead=0;swimlaneBody=0;fillColor=none;collapsible=0;dropTarget=0;points=[[0,0.5],[1,0.5]];portConstraint=eastwest;top=0;left=0;right=0;bottom=0;" vertex="1" parent="qmt6e6BJGcGWodywch0B-37">
          <mxGeometry y="120" width="180" height="30" as="geometry" />
        </mxCell>
        <mxCell id="qmt6e6BJGcGWodywch0B-51" value="&lt;b&gt;NN&lt;/b&gt;" style="shape=partialRectangle;connectable=0;fillColor=none;top=0;left=0;bottom=0;right=0;editable=1;overflow=hidden;whiteSpace=wrap;html=1;" vertex="1" parent="qmt6e6BJGcGWodywch0B-50">
          <mxGeometry width="30" height="30" as="geometry">
            <mxRectangle width="30" height="30" as="alternateBounds" />
          </mxGeometry>
        </mxCell>
        <mxCell id="qmt6e6BJGcGWodywch0B-52" value="created_at" style="shape=partialRectangle;connectable=0;fillColor=none;top=0;left=0;bottom=0;right=0;align=left;spacingLeft=6;overflow=hidden;whiteSpace=wrap;html=1;" vertex="1" parent="qmt6e6BJGcGWodywch0B-50">
          <mxGeometry x="30" width="150" height="30" as="geometry">
            <mxRectangle width="150" height="30" as="alternateBounds" />
          </mxGeometry>
        </mxCell>
        <mxCell id="qmt6e6BJGcGWodywch0B-53" style="shape=tableRow;horizontal=0;startSize=0;swimlaneHead=0;swimlaneBody=0;fillColor=none;collapsible=0;dropTarget=0;points=[[0,0.5],[1,0.5]];portConstraint=eastwest;top=0;left=0;right=0;bottom=0;" vertex="1" parent="qmt6e6BJGcGWodywch0B-37">
          <mxGeometry y="150" width="180" height="30" as="geometry" />
        </mxCell>
        <mxCell id="qmt6e6BJGcGWodywch0B-54" value="&lt;b&gt;NN&lt;/b&gt;" style="shape=partialRectangle;connectable=0;fillColor=none;top=0;left=0;bottom=0;right=0;editable=1;overflow=hidden;whiteSpace=wrap;html=1;" vertex="1" parent="qmt6e6BJGcGWodywch0B-53">
          <mxGeometry width="30" height="30" as="geometry">
            <mxRectangle width="30" height="30" as="alternateBounds" />
          </mxGeometry>
        </mxCell>
        <mxCell id="qmt6e6BJGcGWodywch0B-55" value="updated_at" style="shape=partialRectangle;connectable=0;fillColor=none;top=0;left=0;bottom=0;right=0;align=left;spacingLeft=6;overflow=hidden;whiteSpace=wrap;html=1;" vertex="1" parent="qmt6e6BJGcGWodywch0B-53">
          <mxGeometry x="30" width="150" height="30" as="geometry">
            <mxRectangle width="150" height="30" as="alternateBounds" />
          </mxGeometry>
        </mxCell>
        <mxCell id="qmt6e6BJGcGWodywch0B-128" style="edgeStyle=orthogonalEdgeStyle;rounded=0;orthogonalLoop=1;jettySize=auto;html=1;fillColor=#f0a30a;strokeColor=#BD7000;" edge="1" parent="1" source="qmt6e6BJGcGWodywch0B-83" target="qmt6e6BJGcGWodywch0B-3">
          <mxGeometry relative="1" as="geometry" />
        </mxCell>
        <mxCell id="qmt6e6BJGcGWodywch0B-83" value="&lt;span style=&quot;font-weight: 700; text-wrap-mode: nowrap;&quot;&gt;Query&lt;/span&gt;" style="swimlane;fontStyle=0;childLayout=stackLayout;horizontal=1;startSize=30;horizontalStack=0;resizeParent=1;resizeParentMax=0;resizeLast=0;collapsible=1;marginBottom=0;whiteSpace=wrap;html=1;" vertex="1" parent="1">
          <mxGeometry x="360" y="480" width="120" height="60" as="geometry" />
        </mxCell>
        <mxCell id="qmt6e6BJGcGWodywch0B-84" value="id" style="text;strokeColor=none;fillColor=none;align=left;verticalAlign=middle;spacingLeft=4;spacingRight=4;overflow=hidden;points=[[0,0.5],[1,0.5]];portConstraint=eastwest;rotatable=0;whiteSpace=wrap;html=1;" vertex="1" parent="qmt6e6BJGcGWodywch0B-83">
          <mxGeometry y="30" width="120" height="30" as="geometry" />
        </mxCell>
        <mxCell id="qmt6e6BJGcGWodywch0B-101" style="edgeStyle=orthogonalEdgeStyle;rounded=0;orthogonalLoop=1;jettySize=auto;html=1;" edge="1" parent="1" source="qmt6e6BJGcGWodywch0B-99" target="qmt6e6BJGcGWodywch0B-2">
          <mxGeometry relative="1" as="geometry" />
        </mxCell>
        <mxCell id="qmt6e6BJGcGWodywch0B-99" value="&lt;b&gt;PostgreSQL&lt;/b&gt;" style="rounded=1;whiteSpace=wrap;html=1;fillColor=#e3c800;fontColor=#000000;strokeColor=#B09500;" vertex="1" parent="1">
          <mxGeometry x="-80" y="960" width="160" height="80" as="geometry" />
        </mxCell>
        <mxCell id="qmt6e6BJGcGWodywch0B-131" style="edgeStyle=orthogonalEdgeStyle;rounded=0;orthogonalLoop=1;jettySize=auto;html=1;fillColor=#008a00;strokeColor=#005700;" edge="1" parent="1" source="qmt6e6BJGcGWodywch0B-106" target="qmt6e6BJGcGWodywch0B-2">
          <mxGeometry relative="1" as="geometry">
            <Array as="points">
              <mxPoint x="-260" y="660" />
              <mxPoint x="-480" y="660" />
            </Array>
          </mxGeometry>
        </mxCell>
        <mxCell id="qmt6e6BJGcGWodywch0B-106" value="UserUpdate" style="shape=table;startSize=30;container=1;collapsible=1;childLayout=tableLayout;fixedRows=1;rowLines=0;fontStyle=1;align=center;resizeLast=1;html=1;" vertex="1" parent="1">
          <mxGeometry x="-350" y="480" width="180" height="150" as="geometry" />
        </mxCell>
        <mxCell id="qmt6e6BJGcGWodywch0B-107" value="" style="shape=tableRow;horizontal=0;startSize=0;swimlaneHead=0;swimlaneBody=0;fillColor=none;collapsible=0;dropTarget=0;points=[[0,0.5],[1,0.5]];portConstraint=eastwest;top=0;left=0;right=0;bottom=1;" vertex="1" parent="qmt6e6BJGcGWodywch0B-106">
          <mxGeometry y="30" width="180" height="30" as="geometry" />
        </mxCell>
        <mxCell id="qmt6e6BJGcGWodywch0B-108" value="PK" style="shape=partialRectangle;connectable=0;fillColor=none;top=0;left=0;bottom=0;right=0;fontStyle=1;overflow=hidden;whiteSpace=wrap;html=1;" vertex="1" parent="qmt6e6BJGcGWodywch0B-107">
          <mxGeometry width="30" height="30" as="geometry">
            <mxRectangle width="30" height="30" as="alternateBounds" />
          </mxGeometry>
        </mxCell>
        <mxCell id="qmt6e6BJGcGWodywch0B-109" value="ID" style="shape=partialRectangle;connectable=0;fillColor=none;top=0;left=0;bottom=0;right=0;align=left;spacingLeft=6;fontStyle=5;overflow=hidden;whiteSpace=wrap;html=1;" vertex="1" parent="qmt6e6BJGcGWodywch0B-107">
          <mxGeometry x="30" width="150" height="30" as="geometry">
            <mxRectangle width="150" height="30" as="alternateBounds" />
          </mxGeometry>
        </mxCell>
        <mxCell id="qmt6e6BJGcGWodywch0B-110" value="" style="shape=tableRow;horizontal=0;startSize=0;swimlaneHead=0;swimlaneBody=0;fillColor=none;collapsible=0;dropTarget=0;points=[[0,0.5],[1,0.5]];portConstraint=eastwest;top=0;left=0;right=0;bottom=0;" vertex="1" parent="qmt6e6BJGcGWodywch0B-106">
          <mxGeometry y="60" width="180" height="30" as="geometry" />
        </mxCell>
        <mxCell id="qmt6e6BJGcGWodywch0B-111" value="&lt;b&gt;NN&lt;/b&gt;" style="shape=partialRectangle;connectable=0;fillColor=none;top=0;left=0;bottom=0;right=0;editable=1;overflow=hidden;whiteSpace=wrap;html=1;" vertex="1" parent="qmt6e6BJGcGWodywch0B-110">
          <mxGeometry width="30" height="30" as="geometry">
            <mxRectangle width="30" height="30" as="alternateBounds" />
          </mxGeometry>
        </mxCell>
        <mxCell id="qmt6e6BJGcGWodywch0B-112" value="name" style="shape=partialRectangle;connectable=0;fillColor=none;top=0;left=0;bottom=0;right=0;align=left;spacingLeft=6;overflow=hidden;whiteSpace=wrap;html=1;" vertex="1" parent="qmt6e6BJGcGWodywch0B-110">
          <mxGeometry x="30" width="150" height="30" as="geometry">
            <mxRectangle width="150" height="30" as="alternateBounds" />
          </mxGeometry>
        </mxCell>
        <mxCell id="qmt6e6BJGcGWodywch0B-113" value="" style="shape=tableRow;horizontal=0;startSize=0;swimlaneHead=0;swimlaneBody=0;fillColor=none;collapsible=0;dropTarget=0;points=[[0,0.5],[1,0.5]];portConstraint=eastwest;top=0;left=0;right=0;bottom=0;" vertex="1" parent="qmt6e6BJGcGWodywch0B-106">
          <mxGeometry y="90" width="180" height="30" as="geometry" />
        </mxCell>
        <mxCell id="qmt6e6BJGcGWodywch0B-114" value="&lt;b&gt;NN&lt;/b&gt;" style="shape=partialRectangle;connectable=0;fillColor=none;top=0;left=0;bottom=0;right=0;editable=1;overflow=hidden;whiteSpace=wrap;html=1;" vertex="1" parent="qmt6e6BJGcGWodywch0B-113">
          <mxGeometry width="30" height="30" as="geometry">
            <mxRectangle width="30" height="30" as="alternateBounds" />
          </mxGeometry>
        </mxCell>
        <mxCell id="qmt6e6BJGcGWodywch0B-115" value="surname" style="shape=partialRectangle;connectable=0;fillColor=none;top=0;left=0;bottom=0;right=0;align=left;spacingLeft=6;overflow=hidden;whiteSpace=wrap;html=1;" vertex="1" parent="qmt6e6BJGcGWodywch0B-113">
          <mxGeometry x="30" width="150" height="30" as="geometry">
            <mxRectangle width="150" height="30" as="alternateBounds" />
          </mxGeometry>
        </mxCell>
        <mxCell id="qmt6e6BJGcGWodywch0B-122" style="shape=tableRow;horizontal=0;startSize=0;swimlaneHead=0;swimlaneBody=0;fillColor=none;collapsible=0;dropTarget=0;points=[[0,0.5],[1,0.5]];portConstraint=eastwest;top=0;left=0;right=0;bottom=0;" vertex="1" parent="qmt6e6BJGcGWodywch0B-106">
          <mxGeometry y="120" width="180" height="30" as="geometry" />
        </mxCell>
        <mxCell id="qmt6e6BJGcGWodywch0B-123" value="" style="shape=partialRectangle;connectable=0;fillColor=none;top=0;left=0;bottom=0;right=0;editable=1;overflow=hidden;whiteSpace=wrap;html=1;" vertex="1" parent="qmt6e6BJGcGWodywch0B-122">
          <mxGeometry width="30" height="30" as="geometry">
            <mxRectangle width="30" height="30" as="alternateBounds" />
          </mxGeometry>
        </mxCell>
        <mxCell id="qmt6e6BJGcGWodywch0B-124" value="password" style="shape=partialRectangle;connectable=0;fillColor=none;top=0;left=0;bottom=0;right=0;align=left;spacingLeft=6;overflow=hidden;whiteSpace=wrap;html=1;" vertex="1" parent="qmt6e6BJGcGWodywch0B-122">
          <mxGeometry x="30" width="150" height="30" as="geometry">
            <mxRectangle width="150" height="30" as="alternateBounds" />
          </mxGeometry>
        </mxCell>
        <mxCell id="qmt6e6BJGcGWodywch0B-151" style="edgeStyle=orthogonalEdgeStyle;rounded=0;orthogonalLoop=1;jettySize=auto;html=1;fillColor=#008a00;strokeColor=#005700;" edge="1" parent="1" source="qmt6e6BJGcGWodywch0B-136" target="qmt6e6BJGcGWodywch0B-2">
          <mxGeometry relative="1" as="geometry" />
        </mxCell>
        <mxCell id="qmt6e6BJGcGWodywch0B-136" value="UserCreate" style="shape=table;startSize=30;container=1;collapsible=1;childLayout=tableLayout;fixedRows=1;rowLines=0;fontStyle=1;align=center;resizeLast=1;html=1;" vertex="1" parent="1">
          <mxGeometry x="-570" y="480" width="180" height="120" as="geometry" />
        </mxCell>
        <mxCell id="qmt6e6BJGcGWodywch0B-140" value="" style="shape=tableRow;horizontal=0;startSize=0;swimlaneHead=0;swimlaneBody=0;fillColor=none;collapsible=0;dropTarget=0;points=[[0,0.5],[1,0.5]];portConstraint=eastwest;top=0;left=0;right=0;bottom=0;" vertex="1" parent="qmt6e6BJGcGWodywch0B-136">
          <mxGeometry y="30" width="180" height="30" as="geometry" />
        </mxCell>
        <mxCell id="qmt6e6BJGcGWodywch0B-141" value="&lt;b&gt;NN&lt;/b&gt;" style="shape=partialRectangle;connectable=0;fillColor=none;top=0;left=0;bottom=0;right=0;editable=1;overflow=hidden;whiteSpace=wrap;html=1;" vertex="1" parent="qmt6e6BJGcGWodywch0B-140">
          <mxGeometry width="30" height="30" as="geometry">
            <mxRectangle width="30" height="30" as="alternateBounds" />
          </mxGeometry>
        </mxCell>
        <mxCell id="qmt6e6BJGcGWodywch0B-142" value="name" style="shape=partialRectangle;connectable=0;fillColor=none;top=0;left=0;bottom=0;right=0;align=left;spacingLeft=6;overflow=hidden;whiteSpace=wrap;html=1;" vertex="1" parent="qmt6e6BJGcGWodywch0B-140">
          <mxGeometry x="30" width="150" height="30" as="geometry">
            <mxRectangle width="150" height="30" as="alternateBounds" />
          </mxGeometry>
        </mxCell>
        <mxCell id="qmt6e6BJGcGWodywch0B-143" value="" style="shape=tableRow;horizontal=0;startSize=0;swimlaneHead=0;swimlaneBody=0;fillColor=none;collapsible=0;dropTarget=0;points=[[0,0.5],[1,0.5]];portConstraint=eastwest;top=0;left=0;right=0;bottom=0;" vertex="1" parent="qmt6e6BJGcGWodywch0B-136">
          <mxGeometry y="60" width="180" height="30" as="geometry" />
        </mxCell>
        <mxCell id="qmt6e6BJGcGWodywch0B-144" value="&lt;b&gt;NN&lt;/b&gt;" style="shape=partialRectangle;connectable=0;fillColor=none;top=0;left=0;bottom=0;right=0;editable=1;overflow=hidden;whiteSpace=wrap;html=1;" vertex="1" parent="qmt6e6BJGcGWodywch0B-143">
          <mxGeometry width="30" height="30" as="geometry">
            <mxRectangle width="30" height="30" as="alternateBounds" />
          </mxGeometry>
        </mxCell>
        <mxCell id="qmt6e6BJGcGWodywch0B-145" value="surname" style="shape=partialRectangle;connectable=0;fillColor=none;top=0;left=0;bottom=0;right=0;align=left;spacingLeft=6;overflow=hidden;whiteSpace=wrap;html=1;" vertex="1" parent="qmt6e6BJGcGWodywch0B-143">
          <mxGeometry x="30" width="150" height="30" as="geometry">
            <mxRectangle width="150" height="30" as="alternateBounds" />
          </mxGeometry>
        </mxCell>
        <mxCell id="qmt6e6BJGcGWodywch0B-146" style="shape=tableRow;horizontal=0;startSize=0;swimlaneHead=0;swimlaneBody=0;fillColor=none;collapsible=0;dropTarget=0;points=[[0,0.5],[1,0.5]];portConstraint=eastwest;top=0;left=0;right=0;bottom=0;" vertex="1" parent="qmt6e6BJGcGWodywch0B-136">
          <mxGeometry y="90" width="180" height="30" as="geometry" />
        </mxCell>
        <mxCell id="qmt6e6BJGcGWodywch0B-147" value="&lt;b&gt;NN&lt;/b&gt;" style="shape=partialRectangle;connectable=0;fillColor=none;top=0;left=0;bottom=0;right=0;editable=1;overflow=hidden;whiteSpace=wrap;html=1;" vertex="1" parent="qmt6e6BJGcGWodywch0B-146">
          <mxGeometry width="30" height="30" as="geometry">
            <mxRectangle width="30" height="30" as="alternateBounds" />
          </mxGeometry>
        </mxCell>
        <mxCell id="qmt6e6BJGcGWodywch0B-148" value="password" style="shape=partialRectangle;connectable=0;fillColor=none;top=0;left=0;bottom=0;right=0;align=left;spacingLeft=6;overflow=hidden;whiteSpace=wrap;html=1;" vertex="1" parent="qmt6e6BJGcGWodywch0B-146">
          <mxGeometry x="30" width="150" height="30" as="geometry">
            <mxRectangle width="150" height="30" as="alternateBounds" />
          </mxGeometry>
        </mxCell>
      </root>
    </mxGraphModel>
  </diagram>
</mxfile>
